<svg version="1.0" xmlns="http://www.w3.org/2000/svg"
     viewBox="0 0 500 500">
    <g transform="translate(0.000000,500.000000) scale(0.100000,-0.100000)"
       fill="#000000" stroke="none">
        <path d="M3160 2907 c-56 -28 -48 -110 13 -131 67 -24 118 78 61 123 -31 24
-40 25 -74 8z"/>
        <path d="M1190 2630 l0 -280 165 0 165 0 0 41 0 41 27 -33 c50 -59 139 -77
201 -39 39 24 42 24 42 5 0 -12 13 -15 60 -15 45 0 60 4 60 14 0 12 5 12 31
-1 73 -36 185 -28 231 17 22 23 28 37 28 73 0 57 -26 90 -88 113 -26 9 -53 23
-61 30 -23 21 18 35 64 23 33 -9 41 -8 51 5 10 15 21 0 77 -100 l65 -118 -59
-118 -59 -118 69 0 69 0 133 257 c74 141 136 260 137 265 2 4 -28 8 -66 8
l-70 0 -38 -85 c-21 -47 -41 -85 -44 -85 -3 0 -25 38 -49 84 l-45 83 -117 6
c-140 8 -170 3 -209 -33 -24 -22 -30 -36 -30 -69 0 -49 28 -83 88 -108 54 -22
65 -33 51 -49 -16 -20 -49 -17 -86 6 l-33 20 -17 -33 c-18 -32 -18 -32 -21
116 l-3 147 -59 0 c-45 0 -60 -4 -60 -14 0 -11 -8 -10 -37 6 -28 14 -52 18
-91 15 -59 -4 -94 -25 -129 -77 l-23 -33 0 47 0 46 -95 0 -95 0 0 55 0 55 100
0 100 0 0 55 0 55 -165 0 -165 0 0 -280z m559 -35 c31 -16 41 -33 41 -71 0
-59 -56 -96 -110 -74 -66 27 -69 111 -5 148 27 15 41 15 74 -3z m-249 -59 c0
-24 3 -51 6 -60 5 -14 -6 -16 -90 -16 l-96 0 0 53 c0 30 3 57 7 60 3 4 44 7
90 7 l83 0 0 -44z"/>
        <path d="M2690 2630 l0 -282 123 4 c101 3 129 7 163 25 64 34 100 69 128 125
l26 52 0 -102 0 -102 60 0 60 0 0 62 0 63 19 -35 c59 -112 236 -134 326 -40
l28 29 -46 22 c-44 21 -47 22 -65 6 -27 -24 -97 -22 -122 3 -11 11 -20 27 -20
35 0 13 21 15 130 15 142 0 136 -3 121 63 -7 29 -6 37 5 37 11 0 14 -20 14
-92 0 -135 32 -179 128 -178 20 1 46 6 58 13 20 12 21 13 5 57 -13 37 -20 45
-41 45 -24 0 -25 2 -28 78 l-3 77 36 0 c35 0 35 0 35 45 0 45 0 45 -35 45
l-35 0 0 65 0 65 -60 0 -60 0 0 -65 c0 -63 -1 -65 -25 -65 -20 0 -25 -5 -25
-25 l0 -24 -36 24 c-95 64 -233 33 -285 -65 l-19 -35 0 63 0 62 -60 0 -59 0
-21 48 c-26 57 -60 95 -120 130 -41 25 -56 27 -172 31 l-128 3 0 -282z m216
151 c104 -47 122 -196 33 -276 -22 -20 -50 -35 -63 -35 -13 0 -31 -3 -40 -6
-14 -5 -16 13 -16 165 0 171 0 171 23 171 12 0 40 -9 63 -19z m568 -157 c9 -4
21 -15 27 -25 9 -18 5 -19 -56 -19 -50 0 -65 3 -65 15 0 27 55 44 94 29z"/>
    </g>
</svg>
